<?xml version="1.0" encoding="UTF-8"?>
<svg version="1.1" xmlns="http://www.w3.org/2000/svg" width="200" height="182">
<path d="M0 0 C7.23763425 -0.16848033 14.46804609 -0.32860615 21.70594025 -0.41400146 C25.07720532 -0.45600394 28.44682399 -0.51197469 31.81713867 -0.60351562 C35.69753715 -0.70126228 39.57562048 -0.74609028 43.45703125 -0.78125 C44.64706253 -0.82254028 45.83709381 -0.86383057 47.06318665 -0.90637207 C57.18261149 -0.91173414 62.75998636 3.0271324 69.93855286 9.83972168 C76.08527671 16.13542858 78.50746518 24.51114902 79.046875 33.1171875 C78.94794612 39.20131377 77.92339088 45.22982737 76 51 C76.71285156 51.22945312 77.42570312 51.45890625 78.16015625 51.6953125 C87.81515841 56.13103564 94.39421009 66.39373528 98 76 C101.52689823 90.47769954 96.01566405 103.53776666 89 116 C87.68 117.98 86.36 119.96 85 122 C96.22 122.33 107.44 122.66 119 123 C112.29768786 131.93641618 112.29768786 131.93641618 108.0625 136 C104.44445823 139.48273289 101.12028916 143.11572816 97.83618164 146.90771484 C94.86993644 150.28768046 91.77784573 153.54630741 88.6875 156.8125 C87.46131628 158.10980501 86.23607602 159.40800235 85.01171875 160.70703125 C84.36106445 161.37259033 83.71041016 162.03814941 83.04003906 162.72387695 C80.89130729 165.02014315 80.89130729 165.02014315 78.99902344 167.93823242 C73.59727838 175.30656884 73.59727838 175.30656884 68.88912964 176.56356812 C62.88961408 177.3637382 56.8988112 177.00411395 50.875 176.6875 C49.04181416 176.63223865 47.20846756 176.58206333 45.375 176.53710938 C40.91265259 176.41671628 36.45812006 176.22745511 32 176 C35.38166734 171.98708272 38.79630137 168.07903415 42.5234375 164.37890625 C43.23935059 163.66549072 43.95526367 162.9520752 44.69287109 162.21704102 C45.57797363 161.34104248 46.46307617 160.46504395 47.375 159.5625 C50.22125 156.736875 53.0675 153.91125 56 151 C46.43 150.67 36.86 150.34 27 150 C28.77856942 146.44286117 29.91523182 144.88610569 32.6875 142.25 C35.44231937 139.5697696 38.05924859 136.85418433 40.5625 133.9375 C43.32242187 130.72697864 46.23091015 127.74642753 49.25 124.78125 C51.70684832 122.28052939 53.9657097 119.62533528 56.2421875 116.9609375 C57.94817847 115.0578098 59.74724803 113.35643364 61.625 111.625 C67.04906224 106.21318169 70.22988485 100.08508475 70.625 92.375 C70.35347562 87.05010522 68.83777933 82.78422892 65 79 C60.48555075 76.33105163 57.06992993 75.59978483 51.8515625 75.48828125 C50.86547501 75.46135445 50.86547501 75.46135445 49.85946655 75.43388367 C47.78137428 75.38015563 45.70350653 75.34600875 43.625 75.3125 C42.20700024 75.27929347 40.78902999 75.24480076 39.37109375 75.20898438 C35.91403701 75.12205254 32.45796647 75.06167345 29 75 C29.33 81.6 29.66 88.2 30 95 C30.99 94.67 31.98 94.34 33 94 C33.33 90.04 33.66 86.08 34 82 C37.72994296 81.89197269 41.45675221 81.81266403 45.1875 81.75 C46.24259766 81.71648437 47.29769531 81.68296875 48.38476562 81.6484375 C56.20607842 81.54974586 56.20607842 81.54974586 60.11328125 83.765625 C63.78895839 88.11860083 64.68824318 91.64200808 64.45898438 97.30859375 C63.94697743 100.31091532 63.3252907 101.31801194 61.27734375 103.515625 C60.64175537 104.20043945 60.00616699 104.88525391 59.35131836 105.59082031 C53.7140821 111.36677789 47.99242235 117.05441613 42.25195312 122.72753906 C33.54706745 131.33404515 33.54706745 131.33404515 25.35107422 140.421875 C23.67785637 142.37628053 21.8999131 144.20008513 20.0625 146 C19.47597656 146.5775 18.88945313 147.155 18.28515625 147.75 C17.64900391 148.36875 17.64900391 148.36875 17 149 C13.49172085 147.47920927 11.04728354 145.4004327 8.25 142.8125 C6.9196875 141.59433594 6.9196875 141.59433594 5.5625 140.3515625 C4.716875 139.57554687 3.87125 138.79953125 3 138 C-1.2786591 134.18716265 -5.6296449 130.45969663 -9.99145508 126.74267578 C-12.41952837 124.66909663 -14.83849989 122.58507634 -17.25585938 120.49902344 C-18.37556598 119.53667761 -19.49896659 118.57860385 -20.62695312 117.62597656 C-34.05025104 106.28150797 -34.05025104 106.28150797 -35.39453125 97.390625 C-35.58953861 92.50821839 -35.25955379 88.86317487 -32 85 C-28.60102327 82.73401552 -27.43680827 82.76257346 -23.45703125 82.8046875 C-22.38388672 82.81113281 -21.31074219 82.81757812 -20.20507812 82.82421875 C-18.52575195 82.84935547 -18.52575195 82.84935547 -16.8125 82.875 C-15.68134766 82.88402344 -14.55019531 82.89304687 -13.38476562 82.90234375 C-10.58975371 82.92593035 -7.79485041 82.96180159 -5 83 C-4.505 88.445 -4.505 88.445 -4 94 C-2.68 94.33 -1.36 94.66 0 95 C0 88.73 0 82.46 0 76 C-12.21 76 -24.42 76 -37 76 C-37 66.1 -37 56.2 -37 46 C-24.79 46 -12.58 46 0 46 C0 30.82 0 15.64 0 0 Z M30 29 C30 34.61 30 40.22 30 46 C32.743125 46.0825 35.48625 46.165 38.3125 46.25 C39.60281128 46.30462402 39.60281128 46.30462402 40.91918945 46.36035156 C45.36648556 46.50683404 45.36648556 46.50683404 49.015625 44.23046875 C50.49285536 40.88325235 50.83594021 37.53464482 50 34 C48.60195494 31.12536538 48.60195494 31.12536538 46 29 C42.99011679 28.62225361 40.7166237 28.51846587 37.75 28.6875 C33.91375 28.8421875 33.91375 28.8421875 30 29 Z " fill="#3E78AC" transform="translate(59,3)"/>
</svg>
